STARTFONT 2.1
FONT fgb-25
COMMENT
COMMENT GENERATED BY "../snftobdf 1.0"
COMMENT AUTHOR mleisher@nmsu.edu (Mark Leisher)
COMMENT DATE Wed Dec 19 17:00:12 1990
COMMENT
SIZE 17 75 75
FONTBOUNDINGBOX 17 25 0 -5
STARTPROPERTIES 10
COPYRIGHT "Public domain font.  Share and enjoy."
FAMILY_NAME "fgb-25.bdf"
POINT_SIZE 240
WEIGHT 224
RESOLUTION 103
X_HEIGHT 20
QUAD_WIDTH 17
DEFAULT_CHAR 0
FONT_ASCENT 20
FONT_DESCENT 5
ENDPROPERTIES
CHARS 127
STARTCHAR C001
ENCODING 1
SWIDTH 963 0
DWIDTH 17 0
BBX 17 25 0 -5
BITMAP
070000
070000
070000
070000
070000
070000
070000
070000
070000
070000
c71800
e73800
f77800
777000
7ff000
3fe000
1fc000
1fc000
0f8000
070000
000000
000000
000000
000000
000000
ENDCHAR
STARTCHAR C002
ENCODING 2
SWIDTH 963 0
DWIDTH 17 0
BBX 17 25 0 -5
BITMAP
000000
000000
000000
000000
000000
000000
000e00
1f1c00
3f9c00
71f800
60f800
e0f000
e07000
e07000
e07000
e0f000
60f800
71f800
3f9e00
1f0600
000000
000000
000000
000000
000000
ENDCHAR
STARTCHAR C003
ENCODING 3
SWIDTH 963 0
DWIDTH 17 0
BBX 17 25 0 -5
BITMAP
00f000
03f800
07fc00
0f3c00
1e1c00
1c1c00
383800
383800
707000
70e000
71e000
70f800
f03c00
f01e00
f01e00
f01e00
f01e00
fc3c00
fff800
eff000
e00000
e00000
e00000
e00000
e00000
ENDCHAR
STARTCHAR C004
ENCODING 4
SWIDTH 963 0
DWIDTH 17 0
BBX 17 25 0 -5
BITMAP
000000
000000
000000
000000
000000
000000
000000
038000
07c000
0ee000
0ee000
1c7000
1c7000
383800
383800
701c00
701c00
e00e00
e00e00
c00600
000000
000000
000000
000000
000000
ENDCHAR
STARTCHAR C005
ENCODING 5
SWIDTH 963 0
DWIDTH 17 0
BBX 17 25 0 -5
BITMAP
000000
000000
000000
000000
000000
000000
000000
000000
000000
000000
fffe00
fffe00
000e00
000e00
000e00
000e00
000000
000000
000000
000000
000000
000000
000000
000000
000000
ENDCHAR
STARTCHAR C006
ENCODING 6
SWIDTH 963 0
DWIDTH 17 0
BBX 17 25 0 -5
BITMAP
000000
000000
000000
000000
000000
000000
000000
0fc000
3e0000
780000
700000
e00000
e00000
ff0000
e00000
e00000
700000
780000
3e0000
0fc000
000000
000000
000000
000000
000000
ENDCHAR
STARTCHAR C007
ENCODING 7
SWIDTH 963 0
DWIDTH 17 0
BBX 17 25 0 -5
BITMAP
000000
000000
000000
000000
000000
000000
000000
3f8e00
fffe00
eef800
ce7000
0e7000
1c7000
1c7000
1c7000
1c3800
383800
383800
381c00
381c00
000000
000000
000000
000000
000000
ENDCHAR
STARTCHAR C010
ENCODING 8
SWIDTH 963 0
DWIDTH 17 0
BBX 17 25 0 -5
BITMAP
000000
000000
7c0000
fe0000
cf0000
c70000
038000
038000
01c000
01c000
01c000
03e000
07e000
0fe000
1e7000
3c7000
783800
703800
e01c00
e01e00
000000
000000
000000
000000
000000
ENDCHAR
STARTCHAR C011
ENCODING 9
SWIDTH 963 0
DWIDTH 17 0
BBX 17 25 0 -5
BITMAP
000000
000000
000000
000c00
e01c00
f03c00
787800
3cf000
1fe000
0fc000
078000
078000
078000
07c000
07c000
07c000
07c000
07c000
038000
000000
000000
000000
000000
000000
000000
ENDCHAR
STARTCHAR C012
ENCODING 10
SWIDTH 963 0
DWIDTH 17 0
BBX 17 25 0 -5
BITMAP
000000
000000
000000
0fe000
3ff800
787800
701800
780000
3e0000
0f8000
0fe000
3ff000
787800
e03800
e03800
e03800
f07800
7cf000
7ff000
1fc000
000000
000000
000000
000000
000000
ENDCHAR
STARTCHAR C013
ENCODING 11
SWIDTH 906 0
DWIDTH 16 0
BBX 16 25 0 -5
BITMAP
0700
0f80
1fc0
1fc0
3fe0
7ff0
7770
f778
e738
c718
0700
0700
0700
0700
0700
0700
0700
0700
0700
0700
0000
0000
0000
0000
0000
ENDCHAR
STARTCHAR C014
ENCODING 12
SWIDTH 963 0
DWIDTH 17 0
BBX 17 25 0 -5
BITMAP
000000
038000
038000
038000
038000
038000
038000
fffe00
fffe00
038000
038000
038000
038000
038000
038000
000000
000000
fffe00
fffe00
000000
000000
000000
000000
000000
000000
ENDCHAR
STARTCHAR C015
ENCODING 13
SWIDTH 963 0
DWIDTH 17 0
BBX 17 25 0 -5
BITMAP
000000
000000
000000
000000
000000
07c000
1ff000
3bb800
739c00
638c00
e38e00
fffe00
fffe00
e38e00
638c00
739c00
3bb800
1ff000
07c000
000000
000000
000000
000000
000000
000000
ENDCHAR
STARTCHAR C016
ENCODING 14
SWIDTH 963 0
DWIDTH 17 0
BBX 17 25 0 -5
BITMAP
000000
000000
000000
000000
000000
000000
000000
000000
000000
3c7800
7efc00
e7ce00
e38e00
e38e00
e38e00
e7ce00
7efc00
3c7800
000000
000000
000000
000000
000000
000000
000000
ENDCHAR
STARTCHAR C017
ENCODING 15
SWIDTH 963 0
DWIDTH 17 0
BBX 17 25 0 -5
BITMAP
0f8000
1fe000
1c7000
003800
003800
003800
003800
003800
003800
1fb800
3ff800
707800
e03800
e03800
e03800
e03800
e07000
71e000
7fc000
1f8000
000000
000000
000000
000000
000000
ENDCHAR
STARTCHAR C020
ENCODING 16
SWIDTH 963 0
DWIDTH 17 0
BBX 17 25 0 -5
BITMAP
000000
000000
000000
000000
000000
000000
000000
07fe00
1ffe00
3c0000
780000
f00000
e00000
e00000
e00000
f00000
780000
3c0000
1ffe00
07fe00
000000
000000
000000
000000
000000
ENDCHAR
STARTCHAR C021
ENCODING 17
SWIDTH 963 0
DWIDTH 17 0
BBX 17 25 0 -5
BITMAP
000000
000000
000000
000000
000000
000000
000000
ffc000
fff000
007800
003c00
001e00
000e00
000e00
000e00
001e00
003c00
007800
fff000
ffc000
000000
000000
000000
000000
000000
ENDCHAR
STARTCHAR C022
ENCODING 18
SWIDTH 963 0
DWIDTH 17 0
BBX 17 25 0 -5
BITMAP
000000
000000
000000
0f0000
3fc000
79e000
f0f000
e07000
e07000
e07000
e07000
e07000
e07000
e07000
e07000
e07000
e07000
e07000
e07000
e07000
000000
000000
000000
000000
000000
ENDCHAR
STARTCHAR C023
ENCODING 19
SWIDTH 963 0
DWIDTH 17 0
BBX 17 25 0 -5
BITMAP
000000
000000
000000
e07000
e07000
e07000
e07000
e07000
e07000
e07000
e07000
e07000
e07000
e07000
e07000
e07000
f0f000
79e000
3fc000
0f0000
000000
000000
000000
000000
000000
ENDCHAR
STARTCHAR C024
ENCODING 20
SWIDTH 963 0
DWIDTH 17 0
BBX 17 25 0 -5
BITMAP
e00e00
e00e00
701c00
701c00
701c00
383800
383800
3ff800
1ff000
1c7000
1c7000
0ee000
0ee000
0ee000
07c000
07c000
07c000
038000
038000
038000
000000
000000
000000
000000
000000
ENDCHAR
STARTCHAR C025
ENCODING 21
SWIDTH 963 0
DWIDTH 17 0
BBX 17 25 0 -5
BITMAP
fffe00
fffc00
001c00
001c00
001c00
001c00
001c00
001c00
001c00
07fc00
07fc00
001c00
001c00
001c00
001c00
001c00
001c00
001c00
fffc00
fffe00
000000
000000
000000
000000
000000
ENDCHAR
STARTCHAR C026
ENCODING 22
SWIDTH 963 0
DWIDTH 17 0
BBX 17 25 0 -5
BITMAP
000000
000000
000000
000000
000000
000000
000000
07c000
1ff000
383800
7c7c00
6eec00
e7ce00
e38e00
e7ce00
6eec00
7c7c00
383800
1ff000
07c000
000000
000000
000000
000000
000000
ENDCHAR
STARTCHAR C027
ENCODING 23
SWIDTH 963 0
DWIDTH 17 0
BBX 17 25 0 -5
BITMAP
000000
000000
000000
000000
000000
000000
000000
000000
0c6000
1c7000
383800
701c00
fffe00
fffe00
701c00
383800
1c7000
0c6000
000000
000000
000000
000000
000000
000000
000000
ENDCHAR
STARTCHAR C030
ENCODING 24
SWIDTH 906 0
DWIDTH 16 0
BBX 16 25 0 -5
BITMAP
0000
0000
0000
0000
0000
0000
0000
0000
0e00
1c00
3800
7000
fffe
fffe
7000
3800
1c00
0e00
0000
0000
0000
0000
0000
0000
0000
ENDCHAR
STARTCHAR C031
ENCODING 25
SWIDTH 963 0
DWIDTH 17 0
BBX 17 25 0 -5
BITMAP
000000
000000
000000
000000
000000
000000
000000
000000
00e000
007000
003800
001c00
fffe00
fffe00
001c00
003800
007000
00e000
000000
000000
000000
000000
000000
000000
000000
ENDCHAR
STARTCHAR C032
ENCODING 26
SWIDTH 963 0
DWIDTH 17 0
BBX 17 25 0 -5
BITMAP
000000
000000
000000
000000
000000
000000
000000
003800
007000
00e000
fff800
fff800
038000
070000
fff800
fff800
380000
700000
e00000
000000
000000
000000
000000
000000
000000
ENDCHAR
STARTCHAR C033
ENCODING 27
SWIDTH 963 0
DWIDTH 17 0
BBX 17 25 0 -5
BITMAP
000000
000000
030000
030000
078000
078000
0fc000
1fe000
3cf000
787800
f87c00
787800
3cf000
1fe000
0fc000
078000
078000
030000
030000
000000
000000
000000
000000
000000
000000
ENDCHAR
STARTCHAR C034
ENCODING 28
SWIDTH 963 0
DWIDTH 17 0
BBX 17 25 0 -5
BITMAP
000000
000000
000000
000000
003800
00f800
03e000
0f8000
3e0000
f80000
f80000
3e0000
0f8000
03e000
00f800
003800
000000
000000
fff800
fff800
000000
000000
000000
000000
000000
ENDCHAR
STARTCHAR C035
ENCODING 29
SWIDTH 963 0
DWIDTH 17 0
BBX 17 25 0 -5
BITMAP
000000
000000
000000
000000
e00000
f80000
3e0000
0f8000
03e000
00f800
00f800
03e000
0f8000
3e0000
f80000
e00000
000000
000000
fff800
fff800
000000
000000
000000
000000
000000
ENDCHAR
STARTCHAR C036
ENCODING 30
SWIDTH 963 0
DWIDTH 17 0
BBX 17 25 0 -5
BITMAP
000000
000000
000000
000000
000000
000000
000000
000000
fff800
fff800
000000
000000
fff800
fff800
000000
000000
fff800
fff800
000000
000000
000000
000000
000000
000000
000000
ENDCHAR
STARTCHAR C037
ENCODING 31
SWIDTH 963 0
DWIDTH 17 0
BBX 17 25 0 -5
BITMAP
000000
000000
000000
000000
000000
000000
000000
c00600
e00e00
e00e00
701c00
701c00
383800
383800
1c7000
1c7000
0ee000
0ee000
07c000
038000
000000
000000
000000
000000
000000
ENDCHAR
STARTCHAR C040
ENCODING 32
SWIDTH 963 0
DWIDTH 17 0
BBX 17 25 0 -5
BITMAP
000000
000000
000000
000000
000000
000000
000000
000000
000000
000000
000000
000000
000000
000000
000000
000000
000000
000000
000000
000000
000000
000000
000000
000000
000000
ENDCHAR
STARTCHAR C041
ENCODING 33
SWIDTH 963 0
DWIDTH 17 0
BBX 17 25 0 -5
BITMAP
e00000
e00000
e00000
e00000
e00000
e00000
e00000
e00000
e00000
e00000
e00000
e00000
e00000
e00000
000000
000000
000000
e00000
e00000
e00000
000000
000000
000000
000000
000000
ENDCHAR
STARTCHAR C042
ENCODING 34
SWIDTH 963 0
DWIDTH 17 0
BBX 17 25 0 -5
BITMAP
e70000
e70000
e70000
e70000
e70000
e70000
e70000
e70000
000000
000000
000000
000000
000000
000000
000000
000000
000000
000000
000000
000000
000000
000000
000000
000000
000000
ENDCHAR
STARTCHAR C043
ENCODING 35
SWIDTH 963 0
DWIDTH 17 0
BBX 17 25 0 -5
BITMAP
070e00
070e00
070e00
0e1c00
0e1c00
7ffe00
7ffe00
1c3800
1c3800
1c3800
387000
387000
387000
fffc00
fffc00
70e000
70e000
e1c000
e1c000
e1c000
000000
000000
000000
000000
000000
ENDCHAR
STARTCHAR C044
ENCODING 36
SWIDTH 963 0
DWIDTH 17 0
BBX 17 25 0 -5
BITMAP
1dc000
1dc000
3fe000
7ff000
fdf800
fdf800
fdc000
fdc000
7dc000
3fc000
1fe000
1df000
1df800
1df800
fdf800
fdf800
7ff000
3fe000
1dc000
1dc000
000000
000000
000000
000000
000000
ENDCHAR
STARTCHAR C045
ENCODING 37
SWIDTH 963 0
DWIDTH 17 0
BBX 17 25 0 -5
BITMAP
001c00
3c1c00
7e3800
e73800
e77000
e77000
7ee000
3ce000
01c000
01c000
038000
038000
070000
077800
0efc00
0fce00
1dce00
1dce00
38fc00
387800
000000
000000
000000
000000
000000
ENDCHAR
STARTCHAR C046
ENCODING 38
SWIDTH 963 0
DWIDTH 17 0
BBX 17 25 0 -5
BITMAP
03e000
0ff000
0e7800
1c3800
1c3800
1e7000
0ff000
07c000
1f8000
3f8000
7bc000
f1e000
f1ee00
f0fe00
f0fe00
f07c00
787c00
7cfe00
3fee00
0fc000
000000
000000
000000
000000
000000
ENDCHAR
STARTCHAR C047
ENCODING 39
SWIDTH 963 0
DWIDTH 17 0
BBX 17 25 0 -5
BITMAP
780000
fc0000
fc0000
7c0000
3c0000
380000
700000
600000
000000
000000
000000
000000
000000
000000
000000
000000
000000
000000
000000
000000
000000
000000
000000
000000
000000
ENDCHAR
STARTCHAR C050
ENCODING 40
SWIDTH 963 0
DWIDTH 17 0
BBX 17 25 0 -5
BITMAP
1e0000
3c0000
380000
700000
700000
700000
700000
f00000
f00000
f00000
f00000
f00000
f00000
700000
700000
700000
700000
380000
3c0000
1e0000
000000
000000
000000
000000
000000
ENDCHAR
STARTCHAR C051
ENCODING 41
SWIDTH 963 0
DWIDTH 17 0
BBX 17 25 0 -5
BITMAP
f00000
780000
380000
1c0000
1c0000
1c0000
1c0000
1e0000
1e0000
1e0000
1e0000
1e0000
1e0000
1c0000
1c0000
1c0000
1c0000
380000
780000
f00000
000000
000000
000000
000000
000000
ENDCHAR
STARTCHAR C052
ENCODING 42
SWIDTH 963 0
DWIDTH 17 0
BBX 17 25 0 -5
BITMAP
000000
000000
000000
000000
000000
038000
07c000
e38e00
f39e00
fbbe00
3ff800
1ff000
0fe000
1ff000
3ff800
fbbe00
f39e00
e38e00
07c000
038000
000000
000000
000000
000000
000000
ENDCHAR
STARTCHAR C053
ENCODING 43
SWIDTH 963 0
DWIDTH 17 0
BBX 17 25 0 -5
BITMAP
000000
000000
000000
000000
000000
000000
038000
038000
038000
038000
038000
038000
fffe00
fffe00
038000
038000
038000
038000
038000
038000
000000
000000
000000
000000
000000
ENDCHAR
STARTCHAR C054
ENCODING 44
SWIDTH 963 0
DWIDTH 17 0
BBX 17 25 0 -5
BITMAP
000000
000000
000000
000000
000000
000000
000000
000000
000000
000000
000000
000000
000000
000000
000000
000000
780000
fc0000
fc0000
7c0000
3c0000
380000
700000
600000
000000
ENDCHAR
STARTCHAR C055
ENCODING 45
SWIDTH 963 0
DWIDTH 17 0
BBX 17 25 0 -5
BITMAP
000000
000000
000000
000000
000000
000000
000000
000000
000000
000000
000000
000000
fff800
fff800
000000
000000
000000
000000
000000
000000
000000
000000
000000
000000
000000
ENDCHAR
STARTCHAR C056
ENCODING 46
SWIDTH 963 0
DWIDTH 17 0
BBX 17 25 0 -5
BITMAP
000000
000000
000000
000000
000000
000000
000000
000000
000000
000000
000000
000000
000000
000000
000000
780000
fc0000
fc0000
fc0000
780000
000000
000000
000000
000000
000000
ENDCHAR
STARTCHAR C057
ENCODING 47
SWIDTH 963 0
DWIDTH 17 0
BBX 17 25 0 -5
BITMAP
007800
007000
00f000
00e000
01e000
01c000
03c000
038000
078000
070000
0f0000
0e0000
1e0000
1c0000
3c0000
380000
780000
700000
f00000
e00000
000000
000000
000000
000000
000000
ENDCHAR
STARTCHAR C060
ENCODING 48
SWIDTH 963 0
DWIDTH 17 0
BBX 17 25 0 -5
BITMAP
0fe000
1ff000
3c7e00
783e00
703e00
703c00
707c00
70fc00
71fc00
73dc00
779c00
7f1c00
7e1c00
7c1c00
781c00
f81c00
f83c00
fc7800
1ff000
0fe000
000000
000000
000000
000000
000000
ENDCHAR
STARTCHAR C061
ENCODING 49
SWIDTH 963 0
DWIDTH 17 0
BBX 17 25 0 -5
BITMAP
1e0000
3e0000
7e0000
ee0000
0e0000
0e0000
0e0000
0e0000
0e0000
0e0000
0e0000
0e0000
0e0000
0e0000
0e0000
0e0000
0e0000
0e0000
ffe000
ffe000
000000
000000
000000
000000
000000
ENDCHAR
STARTCHAR C062
ENCODING 50
SWIDTH 963 0
DWIDTH 17 0
BBX 17 25 0 -5
BITMAP
1fe000
7ff800
703800
e01c00
e01c00
001c00
001c00
003800
007000
00e000
01c000
038000
070000
0e0000
1c0000
380000
700000
e00000
fffc00
fffc00
000000
000000
000000
000000
000000
ENDCHAR
STARTCHAR C063
ENCODING 51
SWIDTH 963 0
DWIDTH 17 0
BBX 17 25 0 -5
BITMAP
1fe000
7ff800
703800
e01c00
e01c00
001c00
003800
003800
007000
07e000
07e000
007000
003800
003800
001c00
e01c00
e01c00
703800
7ff800
1fe000
000000
000000
000000
000000
000000
ENDCHAR
STARTCHAR C064
ENCODING 52
SWIDTH 963 0
DWIDTH 17 0
BBX 17 25 0 -5
BITMAP
038000
078000
070000
0e0000
0e0000
1c0000
1c0000
38e000
38e000
70e000
70e000
e0e000
e0e000
fffc00
fffc00
00e000
00e000
00e000
00e000
00e000
000000
000000
000000
000000
000000
ENDCHAR
STARTCHAR C065
ENCODING 53
SWIDTH 963 0
DWIDTH 17 0
BBX 17 25 0 -5
BITMAP
fff800
fff800
e00000
e00000
e00000
e00000
e00000
e00000
e00000
ffe000
fff800
003800
001c00
001c00
001c00
e01c00
e01c00
703800
7ff800
1fe000
000000
000000
000000
000000
000000
ENDCHAR
STARTCHAR C066
ENCODING 54
SWIDTH 963 0
DWIDTH 17 0
BBX 17 25 0 -5
BITMAP
1fe000
7ff800
703800
e01c00
e01c00
e00000
e00000
e00000
e00000
e78000
ffe000
fcf800
f03800
e01c00
e01c00
e01c00
e01c00
703800
7ff800
1fe000
000000
000000
000000
000000
000000
ENDCHAR
STARTCHAR C067
ENCODING 55
SWIDTH 963 0
DWIDTH 17 0
BBX 17 25 0 -5
BITMAP
fffc00
fffc00
003c00
003800
003800
007000
007000
00e000
00e000
01c000
01c000
038000
038000
070000
070000
0e0000
0e0000
1c0000
1c0000
1c0000
000000
000000
000000
000000
000000
ENDCHAR
STARTCHAR C070
ENCODING 56
SWIDTH 963 0
DWIDTH 17 0
BBX 17 25 0 -5
BITMAP
0fc000
3ff000
387000
703800
703800
703800
387000
3ff000
0fc000
078000
1fe000
7cf800
703800
e01c00
e01c00
e01c00
e01c00
703800
7ff800
1fe000
000000
000000
000000
000000
000000
ENDCHAR
STARTCHAR C071
ENCODING 57
SWIDTH 963 0
DWIDTH 17 0
BBX 17 25 0 -5
BITMAP
1fe000
7ff800
703800
e01c00
e01c00
e01c00
e01c00
703c00
7cfc00
1ffc00
079c00
001c00
001c00
001c00
001c00
e01c00
e01c00
703800
7ff800
1fe000
000000
000000
000000
000000
000000
ENDCHAR
STARTCHAR C072
ENCODING 58
SWIDTH 963 0
DWIDTH 17 0
BBX 17 25 0 -5
BITMAP
000000
000000
000000
000000
000000
000000
000000
780000
fc0000
fc0000
fc0000
780000
000000
000000
000000
780000
fc0000
fc0000
fc0000
780000
000000
000000
000000
000000
000000
ENDCHAR
STARTCHAR C073
ENCODING 59
SWIDTH 963 0
DWIDTH 17 0
BBX 17 25 0 -5
BITMAP
000000
000000
000000
000000
000000
000000
000000
000000
780000
fc0000
fc0000
fc0000
780000
000000
000000
000000
780000
fc0000
fc0000
7c0000
3c0000
380000
700000
600000
000000
ENDCHAR
STARTCHAR C074
ENCODING 60
SWIDTH 963 0
DWIDTH 17 0
BBX 17 25 0 -5
BITMAP
000000
000000
000000
000000
000000
000000
000000
003800
00f800
03e000
0f8000
3e0000
f80000
f80000
3e0000
0f8000
03e000
00f800
003800
000000
000000
000000
000000
000000
000000
ENDCHAR
STARTCHAR C075
ENCODING 61
SWIDTH 963 0
DWIDTH 17 0
BBX 17 25 0 -5
BITMAP
000000
000000
000000
000000
000000
000000
000000
000000
000000
000000
fff800
fff800
000000
000000
fff800
fff800
000000
000000
000000
000000
000000
000000
000000
000000
000000
ENDCHAR
STARTCHAR C076
ENCODING 62
SWIDTH 963 0
DWIDTH 17 0
BBX 17 25 0 -5
BITMAP
000000
000000
000000
000000
000000
000000
000000
e00000
f80000
3e0000
0f8000
03e000
00f800
00f800
03e000
0f8000
3e0000
f80000
e00000
000000
000000
000000
000000
000000
000000
ENDCHAR
STARTCHAR C077
ENCODING 63
SWIDTH 963 0
DWIDTH 17 0
BBX 17 25 0 -5
BITMAP
1fc000
3fe000
78f000
f07800
e03800
003800
003800
007800
00f000
01e000
03c000
078000
0f0000
0e0000
0e0000
000000
000000
0f0000
0f0000
0f0000
000000
000000
000000
000000
000000
ENDCHAR
STARTCHAR C100
ENCODING 64
SWIDTH 963 0
DWIDTH 17 0
BBX 17 25 0 -5
BITMAP
000000
000000
000000
000000
000000
000000
0fe000
3ff800
703c00
e01e00
e7ce00
effe00
ee7e00
ee7e00
effc00
e7f800
f00000
781e00
3ffc00
0ff000
000000
000000
000000
000000
000000
ENDCHAR
STARTCHAR C101
ENCODING 65
SWIDTH 963 0
DWIDTH 17 0
BBX 17 25 0 -5
BITMAP
030000
078000
078000
0fc000
0fc000
0fc000
1ce000
1ce000
1ce000
387000
387000
387000
7ff800
7ff800
703800
703800
f03c00
e01c00
e01c00
e01c00
000000
000000
000000
000000
000000
ENDCHAR
STARTCHAR C102
ENCODING 66
SWIDTH 963 0
DWIDTH 17 0
BBX 17 25 0 -5
BITMAP
ffc000
fff000
e07000
e03800
e03800
e03800
e03800
e03800
e07000
fff000
fff800
e03800
e01c00
e01c00
e01c00
e01c00
e01c00
e03800
fff800
ffe000
000000
000000
000000
000000
000000
ENDCHAR
STARTCHAR C103
ENCODING 67
SWIDTH 963 0
DWIDTH 17 0
BBX 17 25 0 -5
BITMAP
1fe000
7ff800
703800
e01c00
e01c00
e00000
e00000
e00000
e00000
e00000
e00000
e00000
e00000
e00000
e00000
e01c00
e01c00
703800
7ff800
1fe000
000000
000000
000000
000000
000000
ENDCHAR
STARTCHAR C104
ENCODING 68
SWIDTH 963 0
DWIDTH 17 0
BBX 17 25 0 -5
BITMAP
ffe000
fff800
e03800
e01c00
e01c00
e01c00
e01c00
e01c00
e01c00
e01c00
e01c00
e01c00
e01c00
e01c00
e01c00
e01c00
e01c00
e03800
fff800
ffe000
000000
000000
000000
000000
000000
ENDCHAR
STARTCHAR C105
ENCODING 69
SWIDTH 963 0
DWIDTH 17 0
BBX 17 25 0 -5
BITMAP
fffc00
fffc00
e00000
e00000
e00000
e00000
e00000
e00000
e00000
fff000
fff000
e00000
e00000
e00000
e00000
e00000
e00000
e00000
fffc00
fffc00
000000
000000
000000
000000
000000
ENDCHAR
STARTCHAR C106
ENCODING 70
SWIDTH 963 0
DWIDTH 17 0
BBX 17 25 0 -5
BITMAP
fffc00
fffc00
e00000
e00000
e00000
e00000
e00000
e00000
e00000
fff000
fff000
e00000
e00000
e00000
e00000
e00000
e00000
e00000
e00000
e00000
000000
000000
000000
000000
000000
ENDCHAR
STARTCHAR C107
ENCODING 71
SWIDTH 963 0
DWIDTH 17 0
BBX 17 25 0 -5
BITMAP
1fe000
7ff800
703800
e01c00
e01c00
e00000
e00000
e00000
e00000
e00000
e00000
e0fc00
e0fc00
e01c00
e01c00
e01c00
e01c00
703800
7ff800
1fe000
000000
000000
000000
000000
000000
ENDCHAR
STARTCHAR C110
ENCODING 72
SWIDTH 963 0
DWIDTH 17 0
BBX 17 25 0 -5
BITMAP
e01c00
e01c00
e01c00
e01c00
e01c00
e01c00
e01c00
e01c00
e01c00
fffc00
fffc00
e01c00
e01c00
e01c00
e01c00
e01c00
e01c00
e01c00
e01c00
e01c00
000000
000000
000000
000000
000000
ENDCHAR
STARTCHAR C111
ENCODING 73
SWIDTH 963 0
DWIDTH 17 0
BBX 17 25 0 -5
BITMAP
fe0000
fe0000
380000
380000
380000
380000
380000
380000
380000
380000
380000
380000
380000
380000
380000
380000
380000
380000
fe0000
fe0000
000000
000000
000000
000000
000000
ENDCHAR
STARTCHAR C112
ENCODING 74
SWIDTH 963 0
DWIDTH 17 0
BBX 17 25 0 -5
BITMAP
001c00
001c00
001c00
001c00
001c00
001c00
001c00
001c00
001c00
001c00
001c00
001c00
001c00
001c00
001c00
e01c00
e01c00
703800
7ff800
1fe000
000000
000000
000000
000000
000000
ENDCHAR
STARTCHAR C113
ENCODING 75
SWIDTH 963 0
DWIDTH 17 0
BBX 17 25 0 -5
BITMAP
e01c00
e03c00
e07800
e0f000
e1e000
e3c000
e78000
ef0000
fe0000
fc0000
f80000
fc0000
fe0000
ef0000
e78000
e3c000
e1e000
e0f000
e07800
e03800
000000
000000
000000
000000
000000
ENDCHAR
STARTCHAR C114
ENCODING 76
SWIDTH 963 0
DWIDTH 17 0
BBX 17 25 0 -5
BITMAP
e00000
e00000
e00000
e00000
e00000
e00000
e00000
e00000
e00000
e00000
e00000
e00000
e00000
e00000
e00000
e00000
e00000
e00000
fffc00
fffc00
000000
000000
000000
000000
000000
ENDCHAR
STARTCHAR C115
ENCODING 77
SWIDTH 963 0
DWIDTH 17 0
BBX 17 25 0 -5
BITMAP
e01c00
f03c00
f87c00
fcfc00
fffc00
efdc00
e79c00
e31c00
e31c00
e01c00
e01c00
e01c00
e01c00
e01c00
e01c00
e01c00
e01c00
e01c00
e01c00
e01c00
000000
000000
000000
000000
000000
ENDCHAR
STARTCHAR C116
ENCODING 78
SWIDTH 963 0
DWIDTH 17 0
BBX 17 25 0 -5
BITMAP
f01c00
f01c00
f81c00
f81c00
fc1c00
fc1c00
ee1c00
ee1c00
e71c00
e71c00
e39c00
e39c00
e1dc00
e1dc00
e0fc00
e0fc00
e07c00
e07c00
e03c00
e03c00
000000
000000
000000
000000
000000
ENDCHAR
STARTCHAR C117
ENCODING 79
SWIDTH 963 0
DWIDTH 17 0
BBX 17 25 0 -5
BITMAP
1fe000
7ff800
703800
e01c00
e01c00
e01c00
e01c00
e01c00
e01c00
e01c00
e01c00
e01c00
e01c00
e01c00
e01c00
e01c00
e01c00
703800
7ff800
1fe000
000000
000000
000000
000000
000000
ENDCHAR
STARTCHAR C120
ENCODING 80
SWIDTH 963 0
DWIDTH 17 0
BBX 17 25 0 -5
BITMAP
ffe000
fff800
e03800
e01c00
e01c00
e01c00
e01c00
e01c00
e03800
fff800
ffe000
e00000
e00000
e00000
e00000
e00000
e00000
e00000
e00000
e00000
000000
000000
000000
000000
000000
ENDCHAR
STARTCHAR C121
ENCODING 81
SWIDTH 963 0
DWIDTH 17 0
BBX 17 25 0 -5
BITMAP
1fe000
7ff800
703800
e01c00
e01c00
e01c00
e01c00
e01c00
e01c00
e01c00
e01c00
e01c00
e01c00
e01c00
e01c00
e0fc00
e0fc00
707800
7ffc00
1ffe00
000e00
000000
000000
000000
000000
ENDCHAR
STARTCHAR C122
ENCODING 82
SWIDTH 963 0
DWIDTH 17 0
BBX 17 25 0 -5
BITMAP
ffe000
fff800
e03800
e01c00
e01c00
e01c00
e01c00
e01c00
e03800
fff800
ffe000
e07000
e07000
e03800
e03800
e03800
e03800
e03800
e01c00
e01c00
000000
000000
000000
000000
000000
ENDCHAR
STARTCHAR C123
ENCODING 83
SWIDTH 963 0
DWIDTH 17 0
BBX 17 25 0 -5
BITMAP
1fe000
7ff800
703800
e01c00
e01c00
e00000
e00000
e00000
700000
7ff000
1ff800
003800
001c00
001c00
001c00
e01c00
e01c00
703800
7ff800
1fe000
000000
000000
000000
000000
000000
ENDCHAR
STARTCHAR C124
ENCODING 84
SWIDTH 963 0
DWIDTH 17 0
BBX 17 25 0 -5
BITMAP
fff800
fff800
070000
070000
070000
070000
070000
070000
070000
070000
070000
070000
070000
070000
070000
070000
070000
070000
070000
070000
000000
000000
000000
000000
000000
ENDCHAR
STARTCHAR C125
ENCODING 85
SWIDTH 963 0
DWIDTH 17 0
BBX 17 25 0 -5
BITMAP
e01c00
e01c00
e01c00
e01c00
e01c00
e01c00
e01c00
e01c00
e01c00
e01c00
e01c00
e01c00
e01c00
e01c00
e01c00
e01c00
e01c00
703800
7ff800
1fe000
000000
000000
000000
000000
000000
ENDCHAR
STARTCHAR C126
ENCODING 86
SWIDTH 963 0
DWIDTH 17 0
BBX 17 25 0 -5
BITMAP
e01c00
e01c00
703800
703800
703800
387000
387000
387000
1ce000
1ce000
1ce000
0fc000
0fc000
0fc000
078000
078000
078000
030000
030000
030000
000000
000000
000000
000000
000000
ENDCHAR
STARTCHAR C127
ENCODING 87
SWIDTH 963 0
DWIDTH 17 0
BBX 17 25 0 -5
BITMAP
e01c00
e01c00
e01c00
e01c00
e01c00
e01c00
e01c00
e01c00
e01c00
e01c00
e01c00
e31c00
e31c00
e79c00
efdc00
fffc00
fcfc00
f87c00
f03c00
e01c00
000000
000000
000000
000000
000000
ENDCHAR
STARTCHAR C130
ENCODING 88
SWIDTH 963 0
DWIDTH 17 0
BBX 17 25 0 -5
BITMAP
e01c00
e01c00
703800
703800
387000
387000
1ce000
1ce000
0fc000
0fc000
0fc000
0fc000
1ce000
1ce000
387000
387000
703800
703800
e01c00
e01c00
000000
000000
000000
000000
000000
ENDCHAR
STARTCHAR C131
ENCODING 89
SWIDTH 963 0
DWIDTH 17 0
BBX 17 25 0 -5
BITMAP
c01800
c01800
e03800
e03800
707000
707000
38e000
38e000
1dc000
1fc000
0f8000
070000
070000
070000
070000
070000
070000
070000
070000
070000
000000
000000
000000
000000
000000
ENDCHAR
STARTCHAR C132
ENCODING 90
SWIDTH 963 0
DWIDTH 17 0
BBX 17 25 0 -5
BITMAP
fffc00
fffc00
003c00
003800
007000
00f000
00e000
01c000
03c000
038000
070000
0f0000
0e0000
1c0000
3c0000
380000
700000
f00000
fffc00
fffc00
000000
000000
000000
000000
000000
ENDCHAR
STARTCHAR C133
ENCODING 91
SWIDTH 906 0
DWIDTH 16 0
BBX 16 25 0 -5
BITMAP
fe00
fe00
e000
e000
e000
e000
e000
e000
e000
e000
e000
e000
e000
e000
e000
e000
e000
e000
fe00
fe00
0000
0000
0000
0000
0000
ENDCHAR
STARTCHAR C134
ENCODING 92
SWIDTH 906 0
DWIDTH 16 0
BBX 16 25 0 -5
BITMAP
f000
7000
7800
3800
3c00
1c00
1e00
0e00
0f00
0700
0780
0380
03c0
01c0
01e0
00e0
00f0
0070
0078
0038
0000
0000
0000
0000
0000
ENDCHAR
STARTCHAR C135
ENCODING 93
SWIDTH 906 0
DWIDTH 16 0
BBX 16 25 0 -5
BITMAP
fe00
fe00
0e00
0e00
0e00
0e00
0e00
0e00
0e00
0e00
0e00
0e00
0e00
0e00
0e00
0e00
0e00
0e00
fe00
fe00
0000
0000
0000
0000
0000
ENDCHAR
STARTCHAR C136
ENCODING 94
SWIDTH 963 0
DWIDTH 17 0
BBX 17 25 0 -5
BITMAP
018000
03c000
07e000
0ff000
1e7800
3c3c00
781e00
f00e00
000000
000000
000000
000000
000000
000000
000000
000000
000000
000000
000000
000000
000000
000000
000000
000000
000000
ENDCHAR
STARTCHAR C137
ENCODING 95
SWIDTH 963 0
DWIDTH 17 0
BBX 17 25 0 -5
BITMAP
000000
000000
000000
000000
000000
000000
000000
000000
000000
000000
000000
000000
000000
000000
000000
000000
000000
000000
000000
000000
000000
000000
ffff80
ffff80
000000
ENDCHAR
STARTCHAR C140
ENCODING 96
SWIDTH 906 0
DWIDTH 16 0
BBX 16 25 0 -5
BITMAP
1800
3800
7000
f000
f800
fc00
fc00
7800
0000
0000
0000
0000
0000
0000
0000
0000
0000
0000
0000
0000
0000
0000
0000
0000
0000
ENDCHAR
STARTCHAR C141
ENCODING 97
SWIDTH 963 0
DWIDTH 17 0
BBX 17 25 0 -5
BITMAP
000000
000000
000000
000000
000000
000000
1fe000
3ff000
703800
703800
003800
00f800
0ff800
7fb800
f03800
e03800
e07800
e0f800
7ff800
3fb800
000000
000000
000000
000000
000000
ENDCHAR
STARTCHAR C142
ENCODING 98
SWIDTH 963 0
DWIDTH 17 0
BBX 17 25 0 -5
BITMAP
000000
000000
000000
e00000
e00000
e00000
e00000
e7c000
fff000
f87000
f03800
e03800
e03800
e03800
e03800
e03800
f03800
f87000
fff000
e7c000
000000
000000
000000
000000
000000
ENDCHAR
STARTCHAR C143
ENCODING 99
SWIDTH 963 0
DWIDTH 17 0
BBX 17 25 0 -5
BITMAP
000000
000000
000000
000000
000000
000000
000000
1fe000
7ff000
703800
e03800
e00000
e00000
e00000
e00000
e00000
e03800
703800
7ff000
1fe000
000000
000000
000000
000000
000000
ENDCHAR
STARTCHAR C144
ENCODING 100
SWIDTH 963 0
DWIDTH 17 0
BBX 17 25 0 -5
BITMAP
000000
000000
003800
003800
003800
003800
003800
1f3800
7ff800
70f800
e07800
e03800
e03800
e03800
e03800
e03800
e07800
70f800
7ff800
1f3800
000000
000000
000000
000000
000000
ENDCHAR
STARTCHAR C145
ENCODING 101
SWIDTH 963 0
DWIDTH 17 0
BBX 17 25 0 -5
BITMAP
000000
000000
000000
000000
000000
000000
000000
1fc000
7ff000
707000
e03800
e03800
fff800
fff800
e00000
e00000
e03800
703800
7ff000
1fe000
000000
000000
000000
000000
000000
ENDCHAR
STARTCHAR C146
ENCODING 102
SWIDTH 963 0
DWIDTH 17 0
BBX 17 25 0 -5
BITMAP
000000
000000
07c000
0fc000
1c0000
1c0000
1c0000
1c0000
ffc000
ffc000
1c0000
1c0000
1c0000
1c0000
1c0000
1c0000
1c0000
1c0000
1c0000
1c0000
000000
000000
000000
000000
000000
ENDCHAR
STARTCHAR C147
ENCODING 103
SWIDTH 963 0
DWIDTH 17 0
BBX 17 25 0 -5
BITMAP
000000
000000
000000
000000
000000
000000
000000
1f3800
7ff800
70f800
e07800
e03800
e03800
e03800
e03800
e03800
e07800
70f800
7ff800
1f3800
003800
003800
707000
7ff000
3fc000
ENDCHAR
STARTCHAR C150
ENCODING 104
SWIDTH 963 0
DWIDTH 17 0
BBX 17 25 0 -5
BITMAP
000000
000000
e00000
e00000
e00000
e00000
e00000
e7c000
fff000
fc7000
f03800
e03800
e03800
e03800
e03800
e03800
e03800
e03800
e03800
e03800
000000
000000
000000
000000
000000
ENDCHAR
STARTCHAR C151
ENCODING 105
SWIDTH 963 0
DWIDTH 17 0
BBX 17 25 0 -5
BITMAP
000000
f00000
f00000
f00000
000000
000000
000000
700000
700000
700000
700000
700000
700000
700000
700000
700000
700000
700000
700000
700000
000000
000000
000000
000000
000000
ENDCHAR
STARTCHAR C152
ENCODING 106
SWIDTH 963 0
DWIDTH 17 0
BBX 17 25 0 -5
BITMAP
000000
000000
1e0000
1e0000
1e0000
000000
000000
000000
0e0000
0e0000
0e0000
0e0000
0e0000
0e0000
0e0000
0e0000
0e0000
0e0000
0e0000
0e0000
0e0000
0e0000
0e0000
fc0000
f80000
ENDCHAR
STARTCHAR C153
ENCODING 107
SWIDTH 963 0
DWIDTH 17 0
BBX 17 25 0 -5
BITMAP
000000
000000
e00000
e00000
e00000
e00000
e00000
e1e000
e3c000
e78000
ef0000
fe0000
fe0000
ff0000
f78000
e3c000
e1e000
e0f000
e07800
e03800
000000
000000
000000
000000
000000
ENDCHAR
STARTCHAR C154
ENCODING 108
SWIDTH 963 0
DWIDTH 17 0
BBX 17 25 0 -5
BITMAP
000000
e00000
e00000
e00000
e00000
e00000
e00000
e00000
e00000
e00000
e00000
e00000
e00000
e00000
e00000
e00000
e00000
e00000
e00000
e00000
000000
000000
000000
000000
000000
ENDCHAR
STARTCHAR C155
ENCODING 109
SWIDTH 963 0
DWIDTH 17 0
BBX 17 25 0 -5
BITMAP
000000
000000
000000
000000
000000
000000
e00000
fef000
fff800
e73800
e73800
e73800
e73800
e73800
e73800
e73800
e73800
e73800
e73800
e73800
000000
000000
000000
000000
000000
ENDCHAR
STARTCHAR C156
ENCODING 110
SWIDTH 963 0
DWIDTH 17 0
BBX 17 25 0 -5
BITMAP
000000
000000
000000
000000
000000
000000
000000
efe000
fff000
f87800
f03800
e03800
e03800
e03800
e03800
e03800
e03800
e03800
e03800
e03800
000000
000000
000000
000000
000000
ENDCHAR
STARTCHAR C157
ENCODING 111
SWIDTH 963 0
DWIDTH 17 0
BBX 17 25 0 -5
BITMAP
000000
000000
000000
000000
000000
000000
000000
1fc000
7ff000
707000
e03800
e03800
e03800
e03800
e03800
e03800
e03800
707000
7ff000
1fc000
000000
000000
000000
000000
000000
ENDCHAR
STARTCHAR C160
ENCODING 112
SWIDTH 963 0
DWIDTH 17 0
BBX 17 25 0 -5
BITMAP
000000
000000
000000
000000
000000
000000
e00000
e7c000
fff000
f87000
f03800
e03800
e03800
e03800
e03800
e03800
f03800
f87000
fff000
e7c000
e00000
e00000
e00000
e00000
e00000
ENDCHAR
STARTCHAR C161
ENCODING 113
SWIDTH 963 0
DWIDTH 17 0
BBX 17 25 0 -5
BITMAP
000000
000000
000000
000000
000000
000000
000000
1f3800
7ff800
70f800
e07800
e03800
e03800
e03800
e03800
e03800
e07800
70f800
7ff800
1f3800
003800
003800
003800
003800
003800
ENDCHAR
STARTCHAR C162
ENCODING 114
SWIDTH 963 0
DWIDTH 17 0
BBX 17 25 0 -5
BITMAP
000000
000000
000000
000000
000000
000000
000000
e78000
ffe000
fcf000
f07000
e00000
e00000
e00000
e00000
e00000
e00000
e00000
e00000
e00000
000000
000000
000000
000000
000000
ENDCHAR
STARTCHAR C163
ENCODING 115
SWIDTH 963 0
DWIDTH 17 0
BBX 17 25 0 -5
BITMAP
000000
000000
000000
000000
000000
000000
000000
3fc000
7fe000
e07000
e07000
e00000
ffc000
7fe000
007000
007000
e07000
e07000
7fe000
3fc000
000000
000000
000000
000000
000000
ENDCHAR
STARTCHAR C164
ENCODING 116
SWIDTH 963 0
DWIDTH 17 0
BBX 17 25 0 -5
BITMAP
000000
000000
1c0000
1c0000
1c0000
1c0000
1c0000
ffc000
ffc000
1c0000
1c0000
1c0000
1c0000
1c0000
1c0000
1c0000
1c0000
1c0000
0fc000
07c000
000000
000000
000000
000000
000000
ENDCHAR
STARTCHAR C165
ENCODING 117
SWIDTH 963 0
DWIDTH 17 0
BBX 17 25 0 -5
BITMAP
000000
000000
000000
000000
000000
000000
000000
e03800
e03800
e03800
e03800
e03800
e03800
e03800
e03800
e03800
e07800
71f800
7ff800
1f3800
000000
000000
000000
000000
000000
ENDCHAR
STARTCHAR C166
ENCODING 118
SWIDTH 963 0
DWIDTH 17 0
BBX 17 25 0 -5
BITMAP
000000
000000
000000
000000
000000
000000
000000
e03800
e03800
f07800
707000
78f000
38e000
3de000
1dc000
1fc000
0f8000
0f8000
070000
070000
000000
000000
000000
000000
000000
ENDCHAR
STARTCHAR C167
ENCODING 119
SWIDTH 963 0
DWIDTH 17 0
BBX 17 25 0 -5
BITMAP
000000
000000
000000
000000
000000
000000
000000
e03800
e03800
e03800
e03800
e03800
e03800
e03800
e73800
efb800
fdf800
f8f800
f07800
e03800
000000
000000
000000
000000
000000
ENDCHAR
STARTCHAR C170
ENCODING 120
SWIDTH 963 0
DWIDTH 17 0
BBX 17 25 0 -5
BITMAP
000000
000000
000000
000000
000000
000000
000000
c01800
e03800
f07800
78f000
3de000
1fc000
0f8000
1fc000
3de000
78f000
f07800
e03800
c01800
000000
000000
000000
000000
000000
ENDCHAR
STARTCHAR C171
ENCODING 121
SWIDTH 963 0
DWIDTH 17 0
BBX 17 25 0 -5
BITMAP
000000
000000
000000
000000
000000
000000
000000
e03800
e03800
e03800
e03800
e03800
e03800
e03800
e03800
e03800
e07800
71f800
7ff800
1f3800
003800
003800
707000
7ff000
3fc000
ENDCHAR
STARTCHAR C172
ENCODING 122
SWIDTH 963 0
DWIDTH 17 0
BBX 17 25 0 -5
BITMAP
000000
000000
000000
000000
000000
000000
000000
fff800
fff800
007000
00e000
01c000
038000
070000
0e0000
1c0000
380000
700000
fff800
fff800
000000
000000
000000
000000
000000
ENDCHAR
STARTCHAR C173
ENCODING 123
SWIDTH 963 0
DWIDTH 17 0
BBX 17 25 0 -5
BITMAP
1e0000
380000
700000
700000
380000
380000
380000
380000
700000
f00000
f00000
700000
380000
380000
380000
380000
700000
700000
380000
1e0000
000000
000000
000000
000000
000000
ENDCHAR
STARTCHAR C174
ENCODING 124
SWIDTH 963 0
DWIDTH 17 0
BBX 17 25 0 -5
BITMAP
e00000
e00000
e00000
e00000
e00000
e00000
e00000
e00000
e00000
e00000
e00000
e00000
e00000
e00000
e00000
e00000
e00000
e00000
e00000
e00000
e00000
e00000
e00000
e00000
e00000
ENDCHAR
STARTCHAR C175
ENCODING 125
SWIDTH 963 0
DWIDTH 17 0
BBX 17 25 0 -5
BITMAP
f00000
380000
1c0000
1c0000
380000
380000
380000
380000
1c0000
1e0000
1e0000
1c0000
380000
380000
380000
380000
1c0000
1c0000
380000
f00000
000000
000000
000000
000000
000000
ENDCHAR
STARTCHAR C176
ENCODING 126
SWIDTH 963 0
DWIDTH 17 0
BBX 17 25 0 -5
BITMAP
000000
000000
000000
000000
000000
000000
000000
000000
000000
000000
1e0600
3f0600
7f8e00
77dc00
e3fc00
c1f800
c0f000
000000
000000
000000
000000
000000
000000
000000
000000
ENDCHAR
STARTCHAR C177
ENCODING 127
SWIDTH 963 0
DWIDTH 17 0
BBX 17 25 0 -5
BITMAP
007c00
00fe00
01ee00
01ee00
01c000
01c000
01c000
03c000
038000
038000
038000
038000
038000
078000
070000
070000
070000
070000
070000
070000
ee0000
ee0000
ee0000
7e0000
3c0000
ENDCHAR
ENDFONT
